<svg xmlns="http://www.w3.org/2000/svg" xmlns:xlink="http://www.w3.org/1999/xlink" width="700" zoomAndPan="magnify" viewBox="0 0 525 74.999997" height="100" preserveAspectRatio="xMidYMid meet" version="1.0"><defs><g/><clipPath id="c98e5afdfd"><path d="M 16.308594 15.210938 L 60.558594 15.210938 L 60.558594 59.460938 L 16.308594 59.460938 Z M 16.308594 15.210938 " clip-rule="nonzero"/></clipPath></defs><g clip-path="url(#c98e5afdfd)"><path fill="#ffffff" d="M 25.136719 51.496094 L 25.636719 51.992188 L 25.6875 52.042969 C 27.246094 53.65625 27.230469 56.257812 25.636719 57.851562 C 24.046875 59.441406 21.445312 59.460938 19.832031 57.898438 L 19.78125 57.851562 L 19.28125 57.355469 L 17.914062 55.984375 C 16.308594 54.375 16.308594 51.742188 17.914062 50.125 C 19.523438 48.515625 22.164062 48.515625 23.773438 50.125 Z M 52.761719 28.832031 L 53.246094 28.34375 L 53.804688 27.789062 L 58.910156 22.683594 C 60.519531 21.074219 60.519531 18.4375 58.910156 16.824219 C 57.292969 15.214844 54.660156 15.214844 53.050781 16.824219 L 47.945312 21.929688 L 47.390625 22.488281 L 43.976562 25.902344 C 42.367188 27.511719 42.367188 30.144531 43.976562 31.757812 L 46.90625 34.6875 L 47.429688 35.207031 L 53.089844 40.871094 C 54.699219 42.480469 57.332031 42.480469 58.949219 40.871094 C 60.558594 39.261719 60.558594 36.621094 58.949219 35.011719 L 53.285156 29.347656 Z M 18.148438 16.863281 L 18.148438 16.855469 C 19.757812 15.246094 22.398438 15.246094 24.007812 16.855469 L 58.871094 51.734375 C 60.484375 53.34375 60.484375 55.984375 58.871094 57.59375 C 57.261719 59.203125 54.628906 59.203125 53.011719 57.59375 L 18.148438 22.714844 C 16.539062 21.105469 16.539062 18.472656 18.148438 16.863281 Z M 18.097656 33.558594 C 19.707031 31.949219 22.34375 31.949219 23.957031 33.558594 L 27.925781 37.527344 L 36.515625 46.121094 L 42.179688 51.785156 C 43.789062 53.394531 43.789062 56.035156 42.179688 57.644531 C 40.5625 59.253906 37.929688 59.253906 36.320312 57.644531 L 30.660156 51.980469 L 22.070312 43.386719 L 18.097656 39.417969 C 16.492188 37.808594 16.492188 35.167969 18.097656 33.558594 Z M 18.097656 33.558594 " fill-opacity="1" fill-rule="evenodd"/></g><g fill="#ff725e" fill-opacity="1"><g transform="translate(82.508947, 51.61838)"><g><path d="M 2.546875 0 L 2.546875 -26.203125 L 19.640625 -26.203125 L 19.640625 -22.34375 L 7.328125 -22.34375 L 7.328125 -15.15625 L 18.53125 -15.15625 L 18.53125 -11.40625 L 7.328125 -11.40625 L 7.328125 -3.859375 L 19.640625 -3.859375 L 19.640625 0 Z M 2.546875 0 "/></g></g></g><g fill="#ff725e" fill-opacity="1"><g transform="translate(109.938264, 51.61838)"><g><path d="M 2.546875 0 L 2.546875 -26.203125 L 11.484375 -26.203125 C 14.554688 -26.203125 17.082031 -25.65625 19.0625 -24.5625 C 21.050781 -23.476562 22.523438 -21.957031 23.484375 -20 C 24.441406 -18.039062 24.921875 -15.738281 24.921875 -13.09375 C 24.921875 -10.445312 24.441406 -8.144531 23.484375 -6.1875 C 22.523438 -4.226562 21.050781 -2.707031 19.0625 -1.625 C 17.082031 -0.539062 14.554688 0 11.484375 0 Z M 7.328125 -4.109375 L 11.265625 -4.109375 C 13.460938 -4.109375 15.195312 -4.460938 16.46875 -5.171875 C 17.738281 -5.890625 18.644531 -6.914062 19.1875 -8.25 C 19.738281 -9.582031 20.015625 -11.195312 20.015625 -13.09375 C 20.015625 -14.96875 19.738281 -16.578125 19.1875 -17.921875 C 18.644531 -19.273438 17.738281 -20.3125 16.46875 -21.03125 C 15.195312 -21.75 13.460938 -22.109375 11.265625 -22.109375 L 7.328125 -22.109375 Z M 7.328125 -4.109375 "/></g></g></g><g fill="#ff725e" fill-opacity="1"><g transform="translate(142.344159, 51.61838)"><g><path d="M 12.65625 0.453125 C 10.726562 0.453125 8.988281 0.0703125 7.4375 -0.6875 C 5.894531 -1.445312 4.664062 -2.597656 3.75 -4.140625 C 2.84375 -5.691406 2.390625 -7.65625 2.390625 -10.03125 L 2.390625 -26.203125 L 7.1875 -26.203125 L 7.1875 -9.984375 C 7.1875 -7.941406 7.675781 -6.421875 8.65625 -5.421875 C 9.644531 -4.421875 11.015625 -3.921875 12.765625 -3.921875 C 14.484375 -3.921875 15.84375 -4.421875 16.84375 -5.421875 C 17.84375 -6.421875 18.34375 -7.941406 18.34375 -9.984375 L 18.34375 -26.203125 L 23.125 -26.203125 L 23.125 -10.03125 C 23.125 -7.65625 22.648438 -5.691406 21.703125 -4.140625 C 20.753906 -2.597656 19.488281 -1.445312 17.90625 -0.6875 C 16.320312 0.0703125 14.570312 0.453125 12.65625 0.453125 Z M 12.65625 0.453125 "/></g></g></g><g fill="#ff725e" fill-opacity="1"><g transform="translate(173.627526, 51.61838)"><g><path d="M 14.40625 0.453125 C 11.757812 0.453125 9.488281 -0.113281 7.59375 -1.25 C 5.695312 -2.382812 4.238281 -3.96875 3.21875 -6 C 2.195312 -8.039062 1.6875 -10.394531 1.6875 -13.0625 C 1.6875 -15.726562 2.195312 -18.082031 3.21875 -20.125 C 4.238281 -22.175781 5.695312 -23.773438 7.59375 -24.921875 C 9.488281 -26.066406 11.757812 -26.640625 14.40625 -26.640625 C 17.550781 -26.640625 20.125 -25.859375 22.125 -24.296875 C 24.132812 -22.742188 25.390625 -20.554688 25.890625 -17.734375 L 20.625 -17.734375 C 20.300781 -19.160156 19.609375 -20.273438 18.546875 -21.078125 C 17.484375 -21.890625 16.078125 -22.296875 14.328125 -22.296875 C 11.910156 -22.296875 10.015625 -21.472656 8.640625 -19.828125 C 7.273438 -18.179688 6.59375 -15.925781 6.59375 -13.0625 C 6.59375 -10.1875 7.273438 -7.929688 8.640625 -6.296875 C 10.015625 -4.671875 11.910156 -3.859375 14.328125 -3.859375 C 16.078125 -3.859375 17.484375 -4.238281 18.546875 -5 C 19.609375 -5.757812 20.300781 -6.8125 20.625 -8.15625 L 25.890625 -8.15625 C 25.390625 -5.457031 24.132812 -3.347656 22.125 -1.828125 C 20.125 -0.304688 17.550781 0.453125 14.40625 0.453125 Z M 14.40625 0.453125 "/></g></g></g><g fill="#ff725e" fill-opacity="1"><g transform="translate(207.006294, 51.61838)"><g><path d="M 0.859375 0 L 10.4375 -26.203125 L 15.828125 -26.203125 L 25.40625 0 L 20.3125 0 L 18.21875 -6.0625 L 8.015625 -6.0625 L 5.875 0 Z M 9.3125 -9.796875 L 16.921875 -9.796875 L 13.09375 -20.6875 Z M 9.3125 -9.796875 "/></g></g></g><g fill="#ff725e" fill-opacity="1"><g transform="translate(239.038018, 51.61838)"><g><path d="M 8.640625 0 L 8.640625 -22.34375 L 1.015625 -22.34375 L 1.015625 -26.203125 L 21.109375 -26.203125 L 21.109375 -22.34375 L 13.4375 -22.34375 L 13.4375 0 Z M 8.640625 0 "/></g></g></g><g fill="#ff725e" fill-opacity="1"><g transform="translate(266.953772, 51.61838)"><g><path d="M 2.546875 0 L 2.546875 -26.203125 L 7.328125 -26.203125 L 7.328125 0 Z M 2.546875 0 "/></g></g></g><g fill="#ff725e" fill-opacity="1"><g transform="translate(282.63387, 51.61838)"><g><path d="M 14.8125 0.453125 C 12.195312 0.453125 9.910156 -0.117188 7.953125 -1.265625 C 5.992188 -2.421875 4.457031 -4.015625 3.34375 -6.046875 C 2.238281 -8.078125 1.6875 -10.425781 1.6875 -13.09375 C 1.6875 -15.769531 2.238281 -18.125 3.34375 -20.15625 C 4.457031 -22.1875 5.992188 -23.773438 7.953125 -24.921875 C 9.910156 -26.066406 12.195312 -26.640625 14.8125 -26.640625 C 17.414062 -26.640625 19.703125 -26.066406 21.671875 -24.921875 C 23.640625 -23.773438 25.171875 -22.1875 26.265625 -20.15625 C 27.367188 -18.125 27.921875 -15.769531 27.921875 -13.09375 C 27.921875 -10.425781 27.367188 -8.078125 26.265625 -6.046875 C 25.171875 -4.015625 23.640625 -2.421875 21.671875 -1.265625 C 19.703125 -0.117188 17.414062 0.453125 14.8125 0.453125 Z M 14.8125 -3.859375 C 17.3125 -3.859375 19.300781 -4.679688 20.78125 -6.328125 C 22.269531 -7.972656 23.015625 -10.226562 23.015625 -13.09375 C 23.015625 -15.96875 22.269531 -18.226562 20.78125 -19.875 C 19.300781 -21.519531 17.3125 -22.34375 14.8125 -22.34375 C 12.320312 -22.34375 10.328125 -21.519531 8.828125 -19.875 C 7.335938 -18.226562 6.59375 -15.96875 6.59375 -13.09375 C 6.59375 -10.226562 7.335938 -7.972656 8.828125 -6.328125 C 10.328125 -4.679688 12.320312 -3.859375 14.8125 -3.859375 Z M 14.8125 -3.859375 "/></g></g></g><g fill="#ff725e" fill-opacity="1"><g transform="translate(318.03319, 51.61838)"><g><path d="M 2.546875 0 L 2.546875 -26.203125 L 7.328125 -26.203125 L 19.640625 -7.75 L 19.640625 -26.203125 L 24.4375 -26.203125 L 24.4375 0 L 19.640625 0 L 7.328125 -18.40625 L 7.328125 0 Z M 2.546875 0 "/></g></g></g><g fill="#ffffff" fill-opacity="1"><g transform="translate(350.809707, 51.61838)"><g><path d="M 2.765625 0 L 2.765625 -26.203125 L 18.71875 -26.203125 L 18.71875 -23.609375 L 5.90625 -23.609375 L 5.90625 -14.40625 L 16.796875 -14.40625 L 16.796875 -11.859375 L 5.90625 -11.859375 L 5.90625 0 Z M 2.765625 0 "/></g></g></g><g fill="#ffffff" fill-opacity="1"><g transform="translate(376.592643, 51.61838)"><g><path d="M 14.671875 0.453125 C 12.097656 0.453125 9.84375 -0.113281 7.90625 -1.25 C 5.976562 -2.382812 4.472656 -3.972656 3.390625 -6.015625 C 2.304688 -8.066406 1.765625 -10.425781 1.765625 -13.09375 C 1.765625 -15.769531 2.304688 -18.125 3.390625 -20.15625 C 4.472656 -22.1875 5.976562 -23.773438 7.90625 -24.921875 C 9.84375 -26.066406 12.097656 -26.640625 14.671875 -26.640625 C 17.265625 -26.640625 19.523438 -26.066406 21.453125 -24.921875 C 23.390625 -23.773438 24.894531 -22.1875 25.96875 -20.15625 C 27.039062 -18.125 27.578125 -15.769531 27.578125 -13.09375 C 27.578125 -10.425781 27.039062 -8.066406 25.96875 -6.015625 C 24.894531 -3.972656 23.390625 -2.382812 21.453125 -1.25 C 19.523438 -0.113281 17.265625 0.453125 14.671875 0.453125 Z M 14.671875 -2.3125 C 16.585938 -2.3125 18.273438 -2.742188 19.734375 -3.609375 C 21.191406 -4.472656 22.328125 -5.707031 23.140625 -7.3125 C 23.953125 -8.925781 24.359375 -10.851562 24.359375 -13.09375 C 24.359375 -15.34375 23.953125 -17.265625 23.140625 -18.859375 C 22.328125 -20.453125 21.191406 -21.679688 19.734375 -22.546875 C 18.273438 -23.410156 16.585938 -23.84375 14.671875 -23.84375 C 12.742188 -23.84375 11.050781 -23.410156 9.59375 -22.546875 C 8.132812 -21.679688 7 -20.453125 6.1875 -18.859375 C 5.382812 -17.265625 4.984375 -15.34375 4.984375 -13.09375 C 4.984375 -10.851562 5.382812 -8.925781 6.1875 -7.3125 C 7 -5.707031 8.132812 -4.472656 9.59375 -3.609375 C 11.050781 -2.742188 12.742188 -2.3125 14.671875 -2.3125 Z M 14.671875 -2.3125 "/></g></g></g><g fill="#ffffff" fill-opacity="1"><g transform="translate(411.730047, 51.61838)"><g><path d="M 2.765625 0 L 2.765625 -26.203125 L 11.234375 -26.203125 C 13.273438 -26.203125 14.941406 -25.863281 16.234375 -25.1875 C 17.535156 -24.507812 18.5 -23.582031 19.125 -22.40625 C 19.75 -21.238281 20.0625 -19.945312 20.0625 -18.53125 C 20.0625 -16.875 19.617188 -15.382812 18.734375 -14.0625 C 17.847656 -12.75 16.46875 -11.816406 14.59375 -11.265625 L 20.3125 0 L 16.609375 0 L 11.296875 -10.8125 L 5.90625 -10.8125 L 5.90625 0 Z M 5.90625 -13.28125 L 11 -13.28125 C 13.019531 -13.28125 14.488281 -13.765625 15.40625 -14.734375 C 16.332031 -15.710938 16.796875 -16.960938 16.796875 -18.484375 C 16.796875 -20.035156 16.34375 -21.265625 15.4375 -22.171875 C 14.53125 -23.078125 13.039062 -23.53125 10.96875 -23.53125 L 5.90625 -23.53125 Z M 5.90625 -13.28125 "/></g></g></g><g fill="#ffffff" fill-opacity="1"><g transform="translate(439.720639, 51.61838)"><g/></g></g><g fill="#ffffff" fill-opacity="1"><g transform="translate(455.438165, 51.61838)"><g><path d="M 2.765625 0 L 2.765625 -26.203125 L 6.4375 -26.203125 L 15.859375 -7.9375 L 25.21875 -26.203125 L 28.921875 -26.203125 L 28.921875 0 L 25.78125 0 L 25.78125 -20.578125 L 17.03125 -3.75 L 14.671875 -3.75 L 5.90625 -20.546875 L 5.90625 0 Z M 2.765625 0 "/></g></g></g><g fill="#ffffff" fill-opacity="1"><g transform="translate(492.932887, 51.61838)"><g><path d="M 2.765625 0 L 2.765625 -26.203125 L 18.96875 -26.203125 L 18.96875 -23.609375 L 5.90625 -23.609375 L 5.90625 -14.484375 L 17.84375 -14.484375 L 17.84375 -11.9375 L 5.90625 -11.9375 L 5.90625 -2.578125 L 18.96875 -2.578125 L 18.96875 0 Z M 2.765625 0 "/></g></g></g></svg>